<?xml version="1.0" standalone="no"?>
<!DOCTYPE svg PUBLIC "-//W3C//DTD SVG 20010904//EN"
 "http://www.w3.org/TR/2001/REC-SVG-20010904/DTD/svg10.dtd">
<svg version="1.0" xmlns="http://www.w3.org/2000/svg"
 width="30.000000pt" height="32.000000pt" viewBox="0 0 30.000000 32.000000"
 preserveAspectRatio="xMidYMid meet">

<g transform="translate(0.000000,32.000000) scale(0.100000,-0.100000)"
fill="#000000" stroke="none">
<path d="M107 272 c-10 -10 -17 -26 -17 -36 0 -10 -9 -25 -19 -34 -14 -13 -21
-36 -25 -89 -7 -89 -2 -93 111 -93 111 0 118 7 109 101 -4 47 -12 78 -21 85
-8 6 -15 19 -15 28 0 48 -89 76 -123 38z m87 -24 c24 -34 20 -38 -34 -38 -54
0 -62 10 -33 42 22 24 49 23 67 -4z"/>
</g>
</svg>
